<svg width="203" height="156" viewBox="0 0 203 156" fill="none" xmlns="http://www.w3.org/2000/svg">
<path d="M66.1724 42.5532H85.011M66.1724 42.5532C66.1724 60.1793 81.3542 74.4681 100.082 74.4681M66.1724 42.5532C66.1724 24.9271 81.3542 10.6383 100.082 10.6383M85.011 42.5532H115.153M85.011 42.5532C85.011 60.1793 91.7585 74.4681 100.082 74.4681M85.011 42.5532C85.011 24.9271 91.7585 10.6383 100.082 10.6383M115.153 42.5532H133.992M115.153 42.5532C115.153 24.9271 108.405 10.6383 100.082 10.6383M115.153 42.5532C115.153 60.1793 108.405 74.4681 100.082 74.4681M133.992 42.5532C133.992 24.9271 118.81 10.6383 100.082 10.6383M133.992 42.5532C133.992 60.1793 118.81 74.4681 100.082 74.4681" stroke="#8A8A8A" stroke-width="2" stroke-linecap="round" stroke-linejoin="round"/>
<mask id="path-2-outside-1_3_354" maskUnits="userSpaceOnUse" x="4.08179" y="100.106" width="199" height="39" fill="black">
<rect fill="white" x="4.08179" y="100.106" width="199" height="39"/>
<path d="M6.94579 138.106C6.18312 138.106 5.59379 137.916 5.17779 137.534C4.79645 137.118 4.60579 136.529 4.60579 135.766V103.786C4.60579 103.024 4.79645 102.452 5.17779 102.07C5.59379 101.654 6.18312 101.446 6.94579 101.446H16.9818C22.9098 101.446 27.4858 103.006 30.7098 106.126C33.9338 109.246 35.5458 113.788 35.5458 119.75C35.5458 122.732 35.1298 125.366 34.2978 127.654C33.5005 129.908 32.3045 131.814 30.7098 133.374C29.1151 134.934 27.1738 136.113 24.8858 136.91C22.5978 137.708 19.9631 138.106 16.9818 138.106H6.94579ZM8.86979 134.466H16.6698C19.0965 134.466 21.1938 134.154 22.9618 133.53C24.7645 132.906 26.2551 131.988 27.4338 130.774C28.6471 129.561 29.5485 128.036 30.1378 126.198C30.7271 124.326 31.0218 122.177 31.0218 119.75C31.0218 114.862 29.8258 111.205 27.4338 108.778C25.0418 106.317 21.4538 105.086 16.6698 105.086H8.86979V134.466ZM53.1315 138.574C50.6702 138.574 48.5382 138.037 46.7355 136.962C44.9329 135.888 43.5289 134.38 42.5235 132.438C41.5529 130.462 41.0675 128.14 41.0675 125.47C41.0675 123.46 41.3449 121.657 41.8995 120.062C42.4542 118.433 43.2689 117.046 44.3435 115.902C45.4182 114.758 46.6835 113.892 48.1395 113.302C49.6302 112.678 51.2942 112.366 53.1315 112.366C55.5929 112.366 57.7249 112.904 59.5275 113.978C61.3302 115.053 62.7169 116.578 63.6875 118.554C64.6929 120.496 65.1955 122.801 65.1955 125.47C65.1955 127.481 64.9182 129.284 64.3635 130.878C63.8089 132.473 62.9942 133.86 61.9195 135.038C60.8449 136.182 59.5622 137.066 58.0715 137.69C56.6155 138.28 54.9689 138.574 53.1315 138.574ZM53.1315 135.194C54.6915 135.194 56.0609 134.813 57.2395 134.05C58.4182 133.288 59.3195 132.178 59.9435 130.722C60.6022 129.266 60.9315 127.516 60.9315 125.47C60.9315 122.316 60.2209 119.906 58.7995 118.242C57.4129 116.578 55.5235 115.746 53.1315 115.746C51.5369 115.746 50.1502 116.128 48.9715 116.89C47.8275 117.618 46.9262 118.71 46.2675 120.166C45.6435 121.588 45.3315 123.356 45.3315 125.47C45.3315 128.59 46.0422 131 47.4635 132.698C48.8849 134.362 50.7742 135.194 53.1315 135.194ZM82.2341 138.574C79.7034 138.574 77.5194 138.02 75.6821 136.91C73.8447 135.801 72.4234 134.258 71.4181 132.282C70.4474 130.272 69.9621 127.949 69.9621 125.314C69.9621 123.304 70.2394 121.501 70.7941 119.906C71.3487 118.312 72.1634 116.96 73.2381 115.85C74.3127 114.706 75.5954 113.84 77.0861 113.25C78.6114 112.661 80.3274 112.366 82.2341 112.366C83.4821 112.366 84.7821 112.557 86.1341 112.938C87.4861 113.32 88.7167 113.978 89.8261 114.914C90.1727 115.157 90.3981 115.452 90.5021 115.798C90.6061 116.145 90.6061 116.492 90.5021 116.838C90.3981 117.15 90.2247 117.428 89.9821 117.67C89.7394 117.878 89.4274 118 89.0461 118.034C88.6994 118.069 88.3354 117.948 87.9541 117.67C87.0527 116.977 86.1341 116.492 85.1981 116.214C84.2621 115.937 83.3607 115.798 82.4941 115.798C81.1421 115.798 79.9634 116.024 78.9581 116.474C77.9527 116.89 77.1034 117.497 76.4101 118.294C75.7167 119.092 75.1794 120.08 74.7981 121.258C74.4514 122.437 74.2781 123.806 74.2781 125.366C74.2781 128.382 74.9887 130.774 76.4101 132.542C77.8314 134.276 79.8594 135.142 82.4941 135.142C83.3607 135.142 84.2447 135.004 85.1461 134.726C86.0821 134.449 87.0181 133.964 87.9541 133.27C88.3354 132.993 88.6994 132.872 89.0461 132.906C89.3927 132.941 89.6874 133.08 89.9301 133.322C90.1727 133.53 90.3287 133.808 90.3981 134.154C90.5021 134.501 90.5021 134.848 90.3981 135.194C90.2941 135.506 90.0687 135.784 89.7221 136.026C88.6127 136.928 87.3994 137.586 86.0821 138.002C84.7647 138.384 83.4821 138.574 82.2341 138.574ZM112.024 138.574C108.419 138.574 105.334 137.812 102.768 136.286C100.203 134.761 98.227 132.594 96.8404 129.786C95.4884 126.978 94.8124 123.633 94.8124 119.75C94.8124 116.838 95.1937 114.238 95.9564 111.95C96.7537 109.628 97.8804 107.669 99.3364 106.074C100.827 104.445 102.647 103.197 104.796 102.33C106.946 101.429 109.355 100.978 112.024 100.978C114.174 100.978 116.219 101.29 118.16 101.914C120.102 102.504 121.783 103.388 123.204 104.566C123.655 104.913 123.95 105.312 124.088 105.762C124.262 106.178 124.279 106.594 124.14 107.01C124.036 107.392 123.828 107.721 123.516 107.998C123.239 108.241 122.892 108.362 122.476 108.362C122.06 108.362 121.592 108.189 121.072 107.842C119.824 106.837 118.455 106.092 116.964 105.606C115.474 105.121 113.862 104.878 112.128 104.878C109.39 104.878 107.067 105.468 105.16 106.646C103.254 107.79 101.815 109.472 100.844 111.69C99.8737 113.909 99.3884 116.596 99.3884 119.75C99.3884 122.905 99.8737 125.609 100.844 127.862C101.815 130.081 103.254 131.78 105.16 132.958C107.067 134.102 109.39 134.674 112.128 134.674C113.827 134.674 115.439 134.432 116.964 133.946C118.49 133.426 119.894 132.664 121.176 131.658C121.696 131.312 122.164 131.156 122.58 131.19C122.996 131.19 123.343 131.312 123.62 131.554C123.898 131.797 124.088 132.109 124.192 132.49C124.331 132.872 124.331 133.27 124.192 133.686C124.088 134.102 123.828 134.466 123.412 134.778C121.956 136.026 120.24 136.98 118.264 137.638C116.323 138.262 114.243 138.574 112.024 138.574ZM132.661 138.47C131.967 138.47 131.447 138.28 131.101 137.898C130.754 137.517 130.581 136.98 130.581 136.286V103.214C130.581 102.521 130.754 102.001 131.101 101.654C131.447 101.273 131.967 101.082 132.661 101.082C133.319 101.082 133.839 101.273 134.221 101.654C134.602 102.001 134.793 102.521 134.793 103.214V118.45H134.117C134.845 116.44 136.023 114.932 137.653 113.926C139.317 112.886 141.223 112.366 143.373 112.366C145.383 112.366 147.047 112.73 148.365 113.458C149.717 114.186 150.722 115.296 151.381 116.786C152.039 118.242 152.369 120.097 152.369 122.35V136.286C152.369 136.98 152.178 137.517 151.797 137.898C151.45 138.28 150.947 138.47 150.289 138.47C149.595 138.47 149.058 138.28 148.677 137.898C148.33 137.517 148.157 136.98 148.157 136.286V122.61C148.157 120.253 147.689 118.537 146.753 117.462C145.851 116.353 144.395 115.798 142.385 115.798C140.062 115.798 138.207 116.526 136.821 117.982C135.469 119.404 134.793 121.31 134.793 123.702V136.286C134.793 137.742 134.082 138.47 132.661 138.47ZM168.091 138.574C166.358 138.574 164.798 138.245 163.411 137.586C162.059 136.893 160.985 135.957 160.187 134.778C159.39 133.6 158.991 132.282 158.991 130.826C158.991 128.954 159.459 127.481 160.395 126.406C161.366 125.332 162.943 124.569 165.127 124.118C167.346 123.668 170.362 123.442 174.175 123.442H176.515V126.198H174.227C171.419 126.198 169.201 126.337 167.571 126.614C165.977 126.857 164.85 127.29 164.191 127.914C163.567 128.538 163.255 129.422 163.255 130.566C163.255 131.988 163.741 133.149 164.711 134.05C165.717 134.952 167.069 135.402 168.767 135.402C170.154 135.402 171.367 135.073 172.407 134.414C173.482 133.756 174.314 132.854 174.903 131.71C175.527 130.566 175.839 129.249 175.839 127.758V121.83C175.839 119.681 175.406 118.138 174.539 117.202C173.673 116.232 172.251 115.746 170.275 115.746C169.062 115.746 167.849 115.902 166.635 116.214C165.422 116.526 164.139 117.029 162.787 117.722C162.302 117.965 161.886 118.052 161.539 117.982C161.193 117.878 160.915 117.688 160.707 117.41C160.499 117.133 160.378 116.821 160.343 116.474C160.309 116.093 160.378 115.729 160.551 115.382C160.759 115.036 161.071 114.758 161.487 114.55C163.013 113.788 164.521 113.233 166.011 112.886C167.502 112.54 168.923 112.366 170.275 112.366C172.459 112.366 174.262 112.73 175.683 113.458C177.105 114.152 178.162 115.226 178.855 116.682C179.549 118.104 179.895 119.941 179.895 122.194V136.286C179.895 136.98 179.722 137.517 179.375 137.898C179.063 138.28 178.595 138.47 177.971 138.47C177.313 138.47 176.81 138.28 176.463 137.898C176.117 137.517 175.943 136.98 175.943 136.286V132.23H176.411C176.134 133.548 175.597 134.674 174.799 135.61C174.037 136.546 173.083 137.274 171.939 137.794C170.795 138.314 169.513 138.574 168.091 138.574ZM197.85 138.574C195.874 138.574 194.21 138.228 192.858 137.534C191.54 136.806 190.552 135.766 189.894 134.414C189.235 133.028 188.906 131.346 188.906 129.37V116.11H185.422C184.832 116.11 184.382 115.972 184.07 115.694C183.758 115.382 183.602 114.966 183.602 114.446C183.602 113.926 183.758 113.528 184.07 113.25C184.382 112.973 184.832 112.834 185.422 112.834H188.906V106.854C188.906 106.161 189.096 105.641 189.478 105.294C189.859 104.913 190.379 104.722 191.038 104.722C191.696 104.722 192.199 104.913 192.546 105.294C192.927 105.641 193.118 106.161 193.118 106.854V112.834H199.67C200.259 112.834 200.71 112.973 201.022 113.25C201.334 113.528 201.49 113.926 201.49 114.446C201.49 114.966 201.334 115.382 201.022 115.694C200.71 115.972 200.259 116.11 199.67 116.11H193.118V128.954C193.118 130.93 193.534 132.438 194.366 133.478C195.198 134.484 196.55 134.986 198.422 134.986C199.08 134.986 199.635 134.917 200.086 134.778C200.571 134.64 200.97 134.57 201.282 134.57C201.594 134.536 201.854 134.64 202.062 134.882C202.27 135.125 202.374 135.541 202.374 136.13C202.374 136.546 202.287 136.928 202.114 137.274C201.975 137.621 201.715 137.864 201.334 138.002C200.918 138.141 200.363 138.262 199.67 138.366C199.011 138.505 198.404 138.574 197.85 138.574Z"/>
</mask>
<path d="M6.94579 138.106C6.18312 138.106 5.59379 137.916 5.17779 137.534C4.79645 137.118 4.60579 136.529 4.60579 135.766V103.786C4.60579 103.024 4.79645 102.452 5.17779 102.07C5.59379 101.654 6.18312 101.446 6.94579 101.446H16.9818C22.9098 101.446 27.4858 103.006 30.7098 106.126C33.9338 109.246 35.5458 113.788 35.5458 119.75C35.5458 122.732 35.1298 125.366 34.2978 127.654C33.5005 129.908 32.3045 131.814 30.7098 133.374C29.1151 134.934 27.1738 136.113 24.8858 136.91C22.5978 137.708 19.9631 138.106 16.9818 138.106H6.94579ZM8.86979 134.466H16.6698C19.0965 134.466 21.1938 134.154 22.9618 133.53C24.7645 132.906 26.2551 131.988 27.4338 130.774C28.6471 129.561 29.5485 128.036 30.1378 126.198C30.7271 124.326 31.0218 122.177 31.0218 119.75C31.0218 114.862 29.8258 111.205 27.4338 108.778C25.0418 106.317 21.4538 105.086 16.6698 105.086H8.86979V134.466ZM53.1315 138.574C50.6702 138.574 48.5382 138.037 46.7355 136.962C44.9329 135.888 43.5289 134.38 42.5235 132.438C41.5529 130.462 41.0675 128.14 41.0675 125.47C41.0675 123.46 41.3449 121.657 41.8995 120.062C42.4542 118.433 43.2689 117.046 44.3435 115.902C45.4182 114.758 46.6835 113.892 48.1395 113.302C49.6302 112.678 51.2942 112.366 53.1315 112.366C55.5929 112.366 57.7249 112.904 59.5275 113.978C61.3302 115.053 62.7169 116.578 63.6875 118.554C64.6929 120.496 65.1955 122.801 65.1955 125.47C65.1955 127.481 64.9182 129.284 64.3635 130.878C63.8089 132.473 62.9942 133.86 61.9195 135.038C60.8449 136.182 59.5622 137.066 58.0715 137.69C56.6155 138.28 54.9689 138.574 53.1315 138.574ZM53.1315 135.194C54.6915 135.194 56.0609 134.813 57.2395 134.05C58.4182 133.288 59.3195 132.178 59.9435 130.722C60.6022 129.266 60.9315 127.516 60.9315 125.47C60.9315 122.316 60.2209 119.906 58.7995 118.242C57.4129 116.578 55.5235 115.746 53.1315 115.746C51.5369 115.746 50.1502 116.128 48.9715 116.89C47.8275 117.618 46.9262 118.71 46.2675 120.166C45.6435 121.588 45.3315 123.356 45.3315 125.47C45.3315 128.59 46.0422 131 47.4635 132.698C48.8849 134.362 50.7742 135.194 53.1315 135.194ZM82.2341 138.574C79.7034 138.574 77.5194 138.02 75.6821 136.91C73.8447 135.801 72.4234 134.258 71.4181 132.282C70.4474 130.272 69.9621 127.949 69.9621 125.314C69.9621 123.304 70.2394 121.501 70.7941 119.906C71.3487 118.312 72.1634 116.96 73.2381 115.85C74.3127 114.706 75.5954 113.84 77.0861 113.25C78.6114 112.661 80.3274 112.366 82.2341 112.366C83.4821 112.366 84.7821 112.557 86.1341 112.938C87.4861 113.32 88.7167 113.978 89.8261 114.914C90.1727 115.157 90.3981 115.452 90.5021 115.798C90.6061 116.145 90.6061 116.492 90.5021 116.838C90.3981 117.15 90.2247 117.428 89.9821 117.67C89.7394 117.878 89.4274 118 89.0461 118.034C88.6994 118.069 88.3354 117.948 87.9541 117.67C87.0527 116.977 86.1341 116.492 85.1981 116.214C84.2621 115.937 83.3607 115.798 82.4941 115.798C81.1421 115.798 79.9634 116.024 78.9581 116.474C77.9527 116.89 77.1034 117.497 76.4101 118.294C75.7167 119.092 75.1794 120.08 74.7981 121.258C74.4514 122.437 74.2781 123.806 74.2781 125.366C74.2781 128.382 74.9887 130.774 76.4101 132.542C77.8314 134.276 79.8594 135.142 82.4941 135.142C83.3607 135.142 84.2447 135.004 85.1461 134.726C86.0821 134.449 87.0181 133.964 87.9541 133.27C88.3354 132.993 88.6994 132.872 89.0461 132.906C89.3927 132.941 89.6874 133.08 89.9301 133.322C90.1727 133.53 90.3287 133.808 90.3981 134.154C90.5021 134.501 90.5021 134.848 90.3981 135.194C90.2941 135.506 90.0687 135.784 89.7221 136.026C88.6127 136.928 87.3994 137.586 86.0821 138.002C84.7647 138.384 83.4821 138.574 82.2341 138.574ZM112.024 138.574C108.419 138.574 105.334 137.812 102.768 136.286C100.203 134.761 98.227 132.594 96.8404 129.786C95.4884 126.978 94.8124 123.633 94.8124 119.75C94.8124 116.838 95.1937 114.238 95.9564 111.95C96.7537 109.628 97.8804 107.669 99.3364 106.074C100.827 104.445 102.647 103.197 104.796 102.33C106.946 101.429 109.355 100.978 112.024 100.978C114.174 100.978 116.219 101.29 118.16 101.914C120.102 102.504 121.783 103.388 123.204 104.566C123.655 104.913 123.95 105.312 124.088 105.762C124.262 106.178 124.279 106.594 124.14 107.01C124.036 107.392 123.828 107.721 123.516 107.998C123.239 108.241 122.892 108.362 122.476 108.362C122.06 108.362 121.592 108.189 121.072 107.842C119.824 106.837 118.455 106.092 116.964 105.606C115.474 105.121 113.862 104.878 112.128 104.878C109.39 104.878 107.067 105.468 105.16 106.646C103.254 107.79 101.815 109.472 100.844 111.69C99.8737 113.909 99.3884 116.596 99.3884 119.75C99.3884 122.905 99.8737 125.609 100.844 127.862C101.815 130.081 103.254 131.78 105.16 132.958C107.067 134.102 109.39 134.674 112.128 134.674C113.827 134.674 115.439 134.432 116.964 133.946C118.49 133.426 119.894 132.664 121.176 131.658C121.696 131.312 122.164 131.156 122.58 131.19C122.996 131.19 123.343 131.312 123.62 131.554C123.898 131.797 124.088 132.109 124.192 132.49C124.331 132.872 124.331 133.27 124.192 133.686C124.088 134.102 123.828 134.466 123.412 134.778C121.956 136.026 120.24 136.98 118.264 137.638C116.323 138.262 114.243 138.574 112.024 138.574ZM132.661 138.47C131.967 138.47 131.447 138.28 131.101 137.898C130.754 137.517 130.581 136.98 130.581 136.286V103.214C130.581 102.521 130.754 102.001 131.101 101.654C131.447 101.273 131.967 101.082 132.661 101.082C133.319 101.082 133.839 101.273 134.221 101.654C134.602 102.001 134.793 102.521 134.793 103.214V118.45H134.117C134.845 116.44 136.023 114.932 137.653 113.926C139.317 112.886 141.223 112.366 143.373 112.366C145.383 112.366 147.047 112.73 148.365 113.458C149.717 114.186 150.722 115.296 151.381 116.786C152.039 118.242 152.369 120.097 152.369 122.35V136.286C152.369 136.98 152.178 137.517 151.797 137.898C151.45 138.28 150.947 138.47 150.289 138.47C149.595 138.47 149.058 138.28 148.677 137.898C148.33 137.517 148.157 136.98 148.157 136.286V122.61C148.157 120.253 147.689 118.537 146.753 117.462C145.851 116.353 144.395 115.798 142.385 115.798C140.062 115.798 138.207 116.526 136.821 117.982C135.469 119.404 134.793 121.31 134.793 123.702V136.286C134.793 137.742 134.082 138.47 132.661 138.47ZM168.091 138.574C166.358 138.574 164.798 138.245 163.411 137.586C162.059 136.893 160.985 135.957 160.187 134.778C159.39 133.6 158.991 132.282 158.991 130.826C158.991 128.954 159.459 127.481 160.395 126.406C161.366 125.332 162.943 124.569 165.127 124.118C167.346 123.668 170.362 123.442 174.175 123.442H176.515V126.198H174.227C171.419 126.198 169.201 126.337 167.571 126.614C165.977 126.857 164.85 127.29 164.191 127.914C163.567 128.538 163.255 129.422 163.255 130.566C163.255 131.988 163.741 133.149 164.711 134.05C165.717 134.952 167.069 135.402 168.767 135.402C170.154 135.402 171.367 135.073 172.407 134.414C173.482 133.756 174.314 132.854 174.903 131.71C175.527 130.566 175.839 129.249 175.839 127.758V121.83C175.839 119.681 175.406 118.138 174.539 117.202C173.673 116.232 172.251 115.746 170.275 115.746C169.062 115.746 167.849 115.902 166.635 116.214C165.422 116.526 164.139 117.029 162.787 117.722C162.302 117.965 161.886 118.052 161.539 117.982C161.193 117.878 160.915 117.688 160.707 117.41C160.499 117.133 160.378 116.821 160.343 116.474C160.309 116.093 160.378 115.729 160.551 115.382C160.759 115.036 161.071 114.758 161.487 114.55C163.013 113.788 164.521 113.233 166.011 112.886C167.502 112.54 168.923 112.366 170.275 112.366C172.459 112.366 174.262 112.73 175.683 113.458C177.105 114.152 178.162 115.226 178.855 116.682C179.549 118.104 179.895 119.941 179.895 122.194V136.286C179.895 136.98 179.722 137.517 179.375 137.898C179.063 138.28 178.595 138.47 177.971 138.47C177.313 138.47 176.81 138.28 176.463 137.898C176.117 137.517 175.943 136.98 175.943 136.286V132.23H176.411C176.134 133.548 175.597 134.674 174.799 135.61C174.037 136.546 173.083 137.274 171.939 137.794C170.795 138.314 169.513 138.574 168.091 138.574ZM197.85 138.574C195.874 138.574 194.21 138.228 192.858 137.534C191.54 136.806 190.552 135.766 189.894 134.414C189.235 133.028 188.906 131.346 188.906 129.37V116.11H185.422C184.832 116.11 184.382 115.972 184.07 115.694C183.758 115.382 183.602 114.966 183.602 114.446C183.602 113.926 183.758 113.528 184.07 113.25C184.382 112.973 184.832 112.834 185.422 112.834H188.906V106.854C188.906 106.161 189.096 105.641 189.478 105.294C189.859 104.913 190.379 104.722 191.038 104.722C191.696 104.722 192.199 104.913 192.546 105.294C192.927 105.641 193.118 106.161 193.118 106.854V112.834H199.67C200.259 112.834 200.71 112.973 201.022 113.25C201.334 113.528 201.49 113.926 201.49 114.446C201.49 114.966 201.334 115.382 201.022 115.694C200.71 115.972 200.259 116.11 199.67 116.11H193.118V128.954C193.118 130.93 193.534 132.438 194.366 133.478C195.198 134.484 196.55 134.986 198.422 134.986C199.08 134.986 199.635 134.917 200.086 134.778C200.571 134.64 200.97 134.57 201.282 134.57C201.594 134.536 201.854 134.64 202.062 134.882C202.27 135.125 202.374 135.541 202.374 136.13C202.374 136.546 202.287 136.928 202.114 137.274C201.975 137.621 201.715 137.864 201.334 138.002C200.918 138.141 200.363 138.262 199.67 138.366C199.011 138.505 198.404 138.574 197.85 138.574Z" fill="#8A8A8A"/>
<path d="M5.17779 137.534L4.80921 137.872L4.8239 137.888L4.83993 137.903L5.17779 137.534ZM5.17779 102.07L5.53134 102.424L5.53134 102.424L5.17779 102.07ZM30.7098 106.126L30.3621 106.486L30.3621 106.486L30.7098 106.126ZM34.2978 127.654L33.8279 127.484L33.8264 127.488L34.2978 127.654ZM8.86979 134.466H8.36979V134.966H8.86979V134.466ZM22.9618 133.53L22.7982 133.058L22.7954 133.059L22.9618 133.53ZM27.4338 130.774L27.0802 130.421L27.0751 130.426L27.4338 130.774ZM30.1378 126.198L30.6139 126.351L30.6147 126.349L30.1378 126.198ZM27.4338 108.778L27.0752 109.127L27.0777 109.129L27.4338 108.778ZM8.86979 105.086V104.586H8.36979V105.086H8.86979ZM6.94579 137.606C6.2636 137.606 5.81112 137.437 5.51565 137.166L4.83993 137.903C5.37646 138.395 6.10264 138.606 6.94579 138.606V137.606ZM5.54636 137.197C5.27552 136.901 5.10579 136.449 5.10579 135.766H4.10579C4.10579 136.61 4.31739 137.336 4.80921 137.872L5.54636 137.197ZM5.10579 135.766V103.786H4.10579V135.766H5.10579ZM5.10579 103.786C5.10579 103.101 5.27685 102.678 5.53134 102.424L4.82423 101.717C4.31606 102.225 4.10579 102.947 4.10579 103.786H5.10579ZM5.53134 102.424C5.82809 102.127 6.27473 101.946 6.94579 101.946V100.946C6.09152 100.946 5.35948 101.182 4.82423 101.717L5.53134 102.424ZM6.94579 101.946H16.9818V100.946H6.94579V101.946ZM16.9818 101.946C22.823 101.946 27.2582 103.482 30.3621 106.486L31.0575 105.767C27.7133 102.531 22.9966 100.946 16.9818 100.946V101.946ZM30.3621 106.486C33.4598 109.484 35.0458 113.877 35.0458 119.75H36.0458C36.0458 113.699 34.4077 109.009 31.0575 105.767L30.3621 106.486ZM35.0458 119.75C35.0458 122.686 34.6361 125.261 33.8279 127.484L34.7677 127.825C35.6235 125.472 36.0458 122.777 36.0458 119.75H35.0458ZM33.8264 127.488C33.0527 129.674 31.8964 131.514 30.3601 133.017L31.0594 133.732C32.7126 132.115 33.9482 130.141 34.7692 127.821L33.8264 127.488ZM30.3601 133.017C28.8224 134.521 26.9459 135.663 24.7213 136.438L25.0503 137.383C27.4016 136.563 29.4078 135.347 31.0594 133.732L30.3601 133.017ZM24.7213 136.438C22.4967 137.213 19.9195 137.606 16.9818 137.606V138.606C20.0067 138.606 22.6988 138.202 25.0503 137.383L24.7213 136.438ZM16.9818 137.606H6.94579V138.606H16.9818V137.606ZM8.86979 134.966H16.6698V133.966H8.86979V134.966ZM16.6698 134.966C19.1373 134.966 21.2936 134.649 23.1282 134.002L22.7954 133.059C21.0939 133.659 19.0556 133.966 16.6698 133.966V134.966ZM23.1253 134.003C24.9923 133.357 26.5527 132.399 27.7924 131.123L27.0751 130.426C25.9575 131.576 24.5366 132.456 22.7982 133.058L23.1253 134.003ZM27.7873 131.128C29.0636 129.852 30.0033 128.255 30.6139 126.351L29.6617 126.046C29.0936 127.817 28.2306 129.27 27.0802 130.421L27.7873 131.128ZM30.6147 126.349C31.2225 124.418 31.5218 122.216 31.5218 119.75H30.5218C30.5218 122.138 30.2318 124.235 29.6609 126.048L30.6147 126.349ZM31.5218 119.75C31.5218 114.788 30.3077 110.982 27.7899 108.427L27.0777 109.129C29.3439 111.428 30.5218 114.936 30.5218 119.75H31.5218ZM27.7924 108.43C25.2741 105.839 21.5345 104.586 16.6698 104.586V105.586C21.373 105.586 24.8095 106.795 27.0752 109.127L27.7924 108.43ZM16.6698 104.586H8.86979V105.586H16.6698V104.586ZM8.36979 105.086V134.466H9.36979V105.086H8.36979ZM46.7355 136.962L46.4795 137.392L46.4795 137.392L46.7355 136.962ZM42.5235 132.438L42.0747 132.659L42.0795 132.668L42.5235 132.438ZM41.8995 120.062L42.3718 120.227L42.3729 120.224L41.8995 120.062ZM44.3435 115.902L44.708 116.245L44.708 116.245L44.3435 115.902ZM48.1395 113.302L48.3271 113.766L48.3326 113.764L48.1395 113.302ZM59.5275 113.978L59.2715 114.408L59.2715 114.408L59.5275 113.978ZM63.6875 118.554L63.2387 118.775L63.2435 118.784L63.6875 118.554ZM64.3635 130.878L63.8913 130.714L63.8913 130.714L64.3635 130.878ZM61.9195 135.038L62.284 135.381L62.289 135.375L61.9195 135.038ZM58.0715 137.69L58.2591 138.154L58.2646 138.152L58.0715 137.69ZM59.9435 130.722L59.4879 130.516L59.484 130.525L59.9435 130.722ZM58.7995 118.242L58.4154 118.562L58.4194 118.567L58.7995 118.242ZM48.9715 116.89L49.24 117.312L49.2432 117.31L48.9715 116.89ZM46.2675 120.166L45.812 119.96L45.8097 119.965L46.2675 120.166ZM47.4635 132.698L47.08 133.019L47.0834 133.023L47.4635 132.698ZM53.1315 138.074C50.7446 138.074 48.7043 137.554 46.9916 136.533L46.4795 137.392C48.3721 138.52 50.5958 139.074 53.1315 139.074V138.074ZM46.9916 136.533C45.2724 135.508 43.9319 134.071 42.9675 132.208L42.0795 132.668C43.1258 134.689 44.5934 136.267 46.4795 137.392L46.9916 136.533ZM42.9723 132.218C42.0418 130.324 41.5675 128.079 41.5675 125.47H40.5675C40.5675 128.2 41.064 130.601 42.0748 132.659L42.9723 132.218ZM41.5675 125.47C41.5675 123.505 41.8386 121.76 42.3718 120.227L41.4273 119.898C40.8511 121.555 40.5675 123.414 40.5675 125.47H41.5675ZM42.3729 120.224C42.9068 118.655 43.6866 117.332 44.708 116.245L43.9791 115.56C42.8511 116.761 42.0016 118.211 41.4262 119.901L42.3729 120.224ZM44.708 116.245C45.7331 115.153 46.9381 114.328 48.3271 113.766L47.9519 112.839C46.429 113.455 45.1033 114.363 43.9791 115.56L44.708 116.245ZM48.3326 113.764C49.7543 113.168 51.3515 112.866 53.1315 112.866V111.866C51.2369 111.866 49.5061 112.188 47.9465 112.841L48.3326 113.764ZM53.1315 112.866C55.5185 112.866 57.5588 113.387 59.2715 114.408L59.7836 113.549C57.891 112.421 55.6673 111.866 53.1315 111.866V112.866ZM59.2715 114.408C60.9869 115.43 62.3086 116.881 63.2388 118.775L64.1363 118.334C63.1252 116.276 61.6735 114.676 59.7836 113.549L59.2715 114.408ZM63.2435 118.784C64.2048 120.641 64.6955 122.864 64.6955 125.47H65.6955C65.6955 122.738 65.1809 120.351 64.1315 118.324L63.2435 118.784ZM64.6955 125.47C64.6955 127.436 64.4245 129.181 63.8913 130.714L64.8358 131.043C65.412 129.386 65.6955 127.527 65.6955 125.47H64.6955ZM63.8913 130.714C63.3575 132.249 62.5765 133.576 61.5501 134.702L62.289 135.375C63.4119 134.144 64.2602 132.697 64.8358 131.043L63.8913 130.714ZM61.5551 134.696C60.53 135.787 59.3063 136.631 57.8785 137.229L58.2646 138.152C59.8181 137.501 61.1597 136.577 62.284 135.381L61.5551 134.696ZM57.8839 137.227C56.4968 137.788 54.9153 138.074 53.1315 138.074V139.074C55.0224 139.074 56.7343 138.771 58.2591 138.154L57.8839 137.227ZM53.1315 135.694C54.7768 135.694 56.2427 135.291 57.5112 134.47L56.9679 133.631C55.879 134.335 54.6063 134.694 53.1315 134.694V135.694ZM57.5112 134.47C58.7836 133.647 59.7452 132.455 60.4031 130.919L59.484 130.525C58.8939 131.902 58.0528 132.929 56.9679 133.631L57.5112 134.47ZM60.3991 130.928C61.094 129.392 61.4315 127.568 61.4315 125.47H60.4315C60.4315 127.464 60.1104 129.14 59.488 130.516L60.3991 130.928ZM61.4315 125.47C61.4315 122.248 60.7063 119.705 59.1797 117.918L58.4194 118.567C59.7354 120.108 60.4315 122.383 60.4315 125.47H61.4315ZM59.1836 117.922C57.6913 116.131 55.6544 115.246 53.1315 115.246V116.246C55.3927 116.246 57.1344 117.025 58.4154 118.562L59.1836 117.922ZM53.1315 115.246C51.454 115.246 49.9701 115.649 48.6999 116.471L49.2432 117.31C50.3303 116.607 51.6198 116.246 53.1315 116.246V115.246ZM48.7031 116.469C47.4633 117.257 46.5034 118.432 45.812 119.96L46.7231 120.372C47.349 118.989 48.1917 117.979 49.24 117.312L48.7031 116.469ZM45.8097 119.965C45.1498 121.469 44.8315 123.31 44.8315 125.47H45.8315C45.8315 123.401 46.1373 121.707 46.7254 120.367L45.8097 119.965ZM44.8315 125.47C44.8315 128.66 45.5578 131.2 47.0801 133.019L47.847 132.378C46.5266 130.799 45.8315 128.52 45.8315 125.47H44.8315ZM47.0834 133.023C48.6077 134.808 50.6407 135.694 53.1315 135.694V134.694C50.9077 134.694 49.162 133.917 47.8437 132.374L47.0834 133.023ZM75.6821 136.91L75.4236 137.338L75.4236 137.338L75.6821 136.91ZM71.4181 132.282L70.9677 132.5L70.9724 132.509L71.4181 132.282ZM73.2381 115.85L73.5972 116.198L73.6025 116.193L73.2381 115.85ZM77.0861 113.25L76.9059 112.784L76.9022 112.785L77.0861 113.25ZM89.8261 114.914L89.5036 115.297L89.5209 115.311L89.5393 115.324L89.8261 114.914ZM90.5021 115.798L90.0232 115.942L90.0232 115.942L90.5021 115.798ZM90.5021 116.838L90.9764 116.996L90.9788 116.989L90.981 116.982L90.5021 116.838ZM89.9821 117.67L90.3075 118.05L90.322 118.038L90.3356 118.024L89.9821 117.67ZM89.0461 118.034L89.0008 117.536L88.9963 117.537L89.0461 118.034ZM87.9541 117.67L87.6491 118.067L87.66 118.075L87.9541 117.67ZM85.1981 116.214L85.3401 115.735L85.3401 115.735L85.1981 116.214ZM78.9581 116.474L79.1492 116.936L79.156 116.934L79.1626 116.931L78.9581 116.474ZM76.4101 118.294L76.0328 117.966L76.0328 117.966L76.4101 118.294ZM74.7981 121.258L74.3222 121.104L74.3184 121.117L74.7981 121.258ZM76.4101 132.542L76.0204 132.856L76.0234 132.859L76.4101 132.542ZM85.1461 134.726L85.004 134.247L84.999 134.248L85.1461 134.726ZM87.9541 133.27L87.66 132.866L87.6565 132.869L87.9541 133.27ZM89.0461 132.906L88.9963 133.404L88.9963 133.404L89.0461 132.906ZM89.9301 133.322L89.5765 133.676L89.5901 133.69L89.6047 133.702L89.9301 133.322ZM90.3981 134.154L89.9078 134.252L89.9124 134.276L89.9192 134.298L90.3981 134.154ZM90.3981 135.194L90.8724 135.352L90.8748 135.345L90.877 135.338L90.3981 135.194ZM89.7221 136.026L89.4353 135.617L89.4207 135.627L89.4068 135.638L89.7221 136.026ZM86.0821 138.002L86.2211 138.483L86.2326 138.479L86.0821 138.002ZM82.2341 138.074C79.778 138.074 77.6869 137.537 75.9405 136.482L75.4236 137.338C77.3519 138.503 79.6288 139.074 82.2341 139.074V138.074ZM75.9405 136.482C74.1859 135.423 72.8281 133.951 71.8637 132.056L70.9724 132.509C72.0187 134.565 73.5036 136.179 75.4236 137.338L75.9405 136.482ZM71.8683 132.065C70.9358 130.133 70.4621 127.887 70.4621 125.314H69.4621C69.4621 128.011 69.959 130.41 70.9678 132.5L71.8683 132.065ZM70.4621 125.314C70.4621 123.349 70.7331 121.604 71.2663 120.071L70.3218 119.742C69.7457 121.399 69.4621 123.258 69.4621 125.314H70.4621ZM71.2663 120.071C71.7993 118.538 72.5777 117.251 73.5972 116.198L72.8789 115.502C71.7491 116.669 70.8981 118.085 70.3218 119.742L71.2663 120.071ZM73.6025 116.193C74.6256 115.104 75.8462 114.278 77.2699 113.715L76.9022 112.785C75.3446 113.401 73.9998 114.309 72.8736 115.508L73.6025 116.193ZM77.2663 113.717C78.7254 113.153 80.379 112.866 82.2341 112.866V111.866C80.2758 111.866 78.4974 112.169 76.9059 112.784L77.2663 113.717ZM82.2341 112.866C83.4308 112.866 84.6851 113.049 85.9983 113.42L86.2698 112.457C84.8791 112.065 83.5333 111.866 82.2341 111.866V112.866ZM85.9983 113.42C87.2795 113.781 88.4469 114.405 89.5036 115.297L90.1485 114.532C88.9866 113.552 87.6927 112.858 86.2698 112.457L85.9983 113.42ZM89.5393 115.324C89.8101 115.514 89.9568 115.721 90.0232 115.942L90.981 115.655C90.8394 115.183 90.5354 114.801 90.1128 114.505L89.5393 115.324ZM90.0232 115.942C90.099 116.195 90.099 116.442 90.0232 116.695L90.981 116.982C91.1131 116.542 91.1131 116.095 90.981 115.655L90.0232 115.942ZM90.0277 116.68C89.9494 116.915 89.8188 117.127 89.6285 117.317L90.3356 118.024C90.6307 117.729 90.8468 117.385 90.9764 116.996L90.0277 116.68ZM89.6567 117.291C89.5074 117.419 89.2997 117.509 89.0008 117.536L89.0913 118.532C89.5551 118.49 89.9714 118.338 90.3075 118.05L89.6567 117.291ZM88.9963 117.537C88.8093 117.556 88.5657 117.497 88.2482 117.266L87.66 118.075C88.1052 118.399 88.5895 118.583 89.0958 118.532L88.9963 117.537ZM88.2589 117.274C87.3168 116.549 86.3439 116.032 85.3401 115.735L85.056 116.694C85.9243 116.951 86.7887 117.405 87.6492 118.067L88.2589 117.274ZM85.3401 115.735C84.3637 115.446 83.4145 115.298 82.4941 115.298V116.298C83.307 116.298 84.1604 116.428 85.056 116.694L85.3401 115.735ZM82.4941 115.298C81.0872 115.298 79.8361 115.533 78.7535 116.018L79.1626 116.931C80.0907 116.515 81.1969 116.298 82.4941 116.298V115.298ZM78.7669 116.012C77.6922 116.457 76.7785 117.109 76.0328 117.966L76.7874 118.622C77.4283 117.885 78.2133 117.324 79.1492 116.936L78.7669 116.012ZM76.0328 117.966C75.2883 118.822 74.7209 119.873 74.3223 121.104L75.2738 121.412C75.6379 120.287 76.1452 119.361 76.7874 118.622L76.0328 117.966ZM74.3184 121.117C73.9552 122.352 73.7781 123.771 73.7781 125.366H74.7781C74.7781 123.842 74.9476 122.522 75.2778 121.399L74.3184 121.117ZM73.7781 125.366C73.7781 128.459 74.5072 130.973 76.0204 132.856L76.7998 132.229C75.4703 130.575 74.7781 128.306 74.7781 125.366H73.7781ZM76.0234 132.859C77.5568 134.729 79.7389 135.642 82.4941 135.642V134.642C79.9799 134.642 78.106 133.822 76.7967 132.225L76.0234 132.859ZM82.4941 135.642C83.4148 135.642 84.3483 135.495 85.2931 135.204L84.999 134.248C84.1412 134.512 83.3067 134.642 82.4941 134.642V135.642ZM85.2881 135.206C86.2898 134.909 87.2776 134.394 88.2517 133.672L87.6565 132.869C86.7585 133.534 85.8744 133.989 85.004 134.247L85.2881 135.206ZM88.2482 133.675C88.5657 133.444 88.8093 133.385 88.9963 133.404L89.0958 132.409C88.5895 132.358 88.1052 132.542 87.66 132.866L88.2482 133.675ZM88.9963 133.404C89.23 133.427 89.4168 133.516 89.5765 133.676L90.2836 132.969C89.958 132.643 89.5554 132.455 89.0958 132.409L88.9963 133.404ZM89.6047 133.702C89.7534 133.829 89.8579 134.003 89.9078 134.252L90.8884 134.056C90.7996 133.612 90.5921 133.231 90.2555 132.943L89.6047 133.702ZM89.9192 134.298C89.995 134.551 89.995 134.798 89.9192 135.051L90.877 135.338C91.0091 134.898 91.0091 134.451 90.877 134.011L89.9192 134.298ZM89.9237 135.036C89.8623 135.221 89.7194 135.418 89.4353 135.617L90.0088 136.436C90.4181 136.15 90.7259 135.792 90.8724 135.352L89.9237 135.036ZM89.4068 135.638C88.3446 136.501 87.1868 137.129 85.9315 137.526L86.2326 138.479C87.6121 138.044 88.8809 137.354 90.0374 136.414L89.4068 135.638ZM85.943 137.522C84.6665 137.892 83.4306 138.074 82.2341 138.074V139.074C83.5335 139.074 84.863 138.876 86.2211 138.483L85.943 137.522ZM102.768 136.286L103.024 135.857L103.024 135.857L102.768 136.286ZM96.8404 129.786L96.3899 130.003L96.3921 130.008L96.8404 129.786ZM95.9564 111.95L95.4835 111.788L95.482 111.792L95.9564 111.95ZM99.3364 106.074L98.9675 105.737L98.9671 105.737L99.3364 106.074ZM104.796 102.33L104.983 102.794L104.99 102.791L104.796 102.33ZM118.16 101.914L118.007 102.39L118.015 102.393L118.16 101.914ZM123.204 104.566L122.885 104.951L122.892 104.957L122.9 104.963L123.204 104.566ZM124.088 105.762L123.61 105.909L123.618 105.932L123.627 105.955L124.088 105.762ZM124.14 107.01L123.666 106.852L123.662 106.865L123.658 106.879L124.14 107.01ZM123.516 107.998L123.846 108.375L123.849 108.372L123.516 107.998ZM121.072 107.842L120.759 108.232L120.776 108.246L120.795 108.258L121.072 107.842ZM116.964 105.606L116.81 106.082L116.81 106.082L116.964 105.606ZM105.16 106.646L105.418 107.075L105.423 107.072L105.16 106.646ZM100.844 111.69L100.386 111.49L100.386 111.49L100.844 111.69ZM100.844 127.862L100.385 128.06L100.386 128.063L100.844 127.862ZM105.16 132.958L104.897 133.384L104.903 133.387L105.16 132.958ZM116.964 133.946L117.116 134.423L117.126 134.42L116.964 133.946ZM121.176 131.658L120.899 131.242L120.883 131.253L120.868 131.265L121.176 131.658ZM122.58 131.19L122.539 131.689L122.56 131.69H122.58V131.19ZM123.62 131.554L123.291 131.931L123.291 131.931L123.62 131.554ZM124.192 132.49L123.71 132.622L123.715 132.642L123.722 132.661L124.192 132.49ZM124.192 133.686L123.718 133.528L123.712 133.546L123.707 133.565L124.192 133.686ZM123.412 134.778L123.112 134.378L123.099 134.388L123.087 134.399L123.412 134.778ZM118.264 137.638L118.417 138.114L118.422 138.113L118.264 137.638ZM112.024 138.074C108.49 138.074 105.497 137.327 103.024 135.857L102.513 136.716C105.17 138.296 108.348 139.074 112.024 139.074V138.074ZM103.024 135.857C100.546 134.383 98.6348 132.291 97.2887 129.565L96.3921 130.008C97.8193 132.898 99.8603 135.139 102.513 136.716L103.024 135.857ZM97.2909 129.569C95.9785 126.844 95.3124 123.576 95.3124 119.75H94.3124C94.3124 123.69 94.9983 127.113 96.3899 130.003L97.2909 129.569ZM95.3124 119.75C95.3124 116.881 95.6882 114.336 96.4307 112.108L95.482 111.792C94.6993 114.141 94.3124 116.795 94.3124 119.75H95.3124ZM96.4293 112.113C97.2074 109.846 98.3017 107.949 99.7056 106.412L98.9671 105.737C97.4591 107.389 96.3 109.409 95.4835 111.788L96.4293 112.113ZM99.7053 106.412C101.143 104.84 102.9 103.634 104.983 102.794L104.609 101.867C102.394 102.76 100.511 104.05 98.9675 105.737L99.7053 106.412ZM104.99 102.791C107.07 101.919 109.412 101.478 112.024 101.478V100.478C109.298 100.478 106.822 100.939 104.603 101.869L104.99 102.791ZM112.024 101.478C114.125 101.478 116.118 101.783 118.007 102.39L118.313 101.438C116.32 100.798 114.223 100.478 112.024 100.478V101.478ZM118.015 102.393C119.899 102.965 121.52 103.819 122.885 104.951L123.524 104.182C122.046 102.956 120.304 102.043 118.306 101.436L118.015 102.393ZM122.9 104.963C123.285 105.259 123.508 105.577 123.61 105.909L124.566 105.615C124.391 105.047 124.025 104.567 123.509 104.17L122.9 104.963ZM123.627 105.955C123.755 106.263 123.765 106.554 123.666 106.852L124.615 107.168C124.793 106.635 124.768 106.094 124.55 105.57L123.627 105.955ZM123.658 106.879C123.581 107.161 123.428 107.408 123.184 107.625L123.849 108.372C124.229 108.034 124.492 107.622 124.623 107.142L123.658 106.879ZM123.187 107.622C123.013 107.775 122.788 107.862 122.476 107.862V108.862C122.997 108.862 123.465 108.707 123.846 108.375L123.187 107.622ZM122.476 107.862C122.197 107.862 121.826 107.744 121.35 107.426L120.795 108.258C121.358 108.634 121.924 108.862 122.476 108.862V107.862ZM121.386 107.453C120.092 106.41 118.669 105.636 117.119 105.131L116.81 106.082C118.241 106.548 119.557 107.264 120.759 108.232L121.386 107.453ZM117.119 105.131C115.574 104.628 113.909 104.378 112.128 104.378V105.378C113.815 105.378 115.374 105.614 116.81 106.082L117.119 105.131ZM112.128 104.378C109.317 104.378 106.899 104.984 104.897 106.221L105.423 107.072C107.235 105.952 109.462 105.378 112.128 105.378V104.378ZM104.903 106.218C102.899 107.42 101.395 109.185 100.386 111.49L101.302 111.891C102.235 109.758 103.608 108.161 105.418 107.075L104.903 106.218ZM100.386 111.49C99.381 113.788 98.8884 116.547 98.8884 119.75H99.8884C99.8884 116.645 100.366 114.03 101.302 111.891L100.386 111.49ZM98.8884 119.75C98.8884 122.954 99.3811 125.729 100.385 128.06L101.304 127.665C100.366 125.489 99.8884 122.856 99.8884 119.75H98.8884ZM100.386 128.063C101.394 130.367 102.897 132.147 104.897 133.384L105.423 132.533C103.61 131.412 102.236 129.795 101.302 127.662L100.386 128.063ZM104.903 133.387C106.904 134.587 109.32 135.174 112.128 135.174V134.174C109.459 134.174 107.23 133.617 105.418 132.53L104.903 133.387ZM112.128 135.174C113.875 135.174 115.539 134.925 117.116 134.423L116.813 133.47C115.339 133.939 113.779 134.174 112.128 134.174V135.174ZM117.126 134.42C118.705 133.881 120.158 133.091 121.485 132.052L120.868 131.265C119.629 132.236 118.275 132.971 116.803 133.473L117.126 134.42ZM121.454 132.074C121.925 131.761 122.279 131.667 122.539 131.689L122.622 130.692C122.049 130.644 121.468 130.863 120.899 131.242L121.454 132.074ZM122.58 131.69C122.892 131.69 123.117 131.778 123.291 131.931L123.95 131.178C123.569 130.845 123.101 130.69 122.58 130.69V131.69ZM123.291 131.931C123.489 132.104 123.63 132.328 123.71 132.622L124.675 132.359C124.547 131.89 124.306 131.49 123.95 131.178L123.291 131.931ZM123.722 132.661C123.819 132.928 123.824 133.21 123.718 133.528L124.667 133.844C124.838 133.331 124.843 132.816 124.662 132.32L123.722 132.661ZM123.707 133.565C123.637 133.847 123.457 134.12 123.112 134.378L123.712 135.178C124.2 134.813 124.54 134.357 124.677 133.808L123.707 133.565ZM123.087 134.399C121.684 135.601 120.026 136.524 118.106 137.164L118.422 138.113C120.455 137.435 122.229 136.452 123.738 135.158L123.087 134.399ZM118.111 137.162C116.224 137.769 114.196 138.074 112.024 138.074V139.074C114.29 139.074 116.422 138.756 118.417 138.114L118.111 137.162ZM131.101 101.654L131.454 102.008L131.463 102L131.471 101.991L131.101 101.654ZM134.221 101.654L133.867 102.008L133.876 102.016L133.884 102.024L134.221 101.654ZM134.793 118.45V118.95H135.293V118.45H134.793ZM134.117 118.45L133.647 118.28L133.404 118.95H134.117V118.45ZM137.653 113.926L137.915 114.352L137.918 114.35L137.653 113.926ZM148.365 113.458L148.123 113.896L148.128 113.899L148.365 113.458ZM151.381 116.786L150.923 116.988L150.925 116.992L151.381 116.786ZM151.797 137.898L151.443 137.545L151.435 137.553L151.427 137.562L151.797 137.898ZM148.677 137.898L148.307 138.235L148.315 138.244L148.323 138.252L148.677 137.898ZM146.753 117.462L146.365 117.778L146.37 117.784L146.376 117.791L146.753 117.462ZM136.821 117.982L136.459 117.638L136.458 117.638L136.821 117.982ZM132.661 137.97C132.057 137.97 131.693 137.807 131.471 137.562L130.731 138.235C131.202 138.753 131.877 138.97 132.661 138.97V137.97ZM131.471 137.562C131.233 137.301 131.081 136.899 131.081 136.286H130.081C130.081 137.06 130.275 137.734 130.731 138.235L131.471 137.562ZM131.081 136.286V103.214H130.081V136.286H131.081ZM131.081 103.214C131.081 102.598 131.234 102.228 131.454 102.008L130.747 101.301C130.274 101.774 130.081 102.444 130.081 103.214H131.081ZM131.471 101.991C131.693 101.746 132.057 101.582 132.661 101.582V100.582C131.877 100.582 131.202 100.8 130.731 101.318L131.471 101.991ZM132.661 101.582C133.218 101.582 133.6 101.74 133.867 102.008L134.574 101.301C134.079 100.806 133.421 100.582 132.661 100.582V101.582ZM133.884 102.024C134.129 102.247 134.293 102.611 134.293 103.214H135.293C135.293 102.431 135.075 101.755 134.557 101.284L133.884 102.024ZM134.293 103.214V118.45H135.293V103.214H134.293ZM134.793 117.95H134.117V118.95H134.793V117.95ZM134.587 118.621C135.281 116.703 136.393 115.291 137.915 114.352L137.39 113.501C135.654 114.572 134.408 116.177 133.647 118.28L134.587 118.621ZM137.918 114.35C139.495 113.365 141.308 112.866 143.373 112.866V111.866C141.139 111.866 139.139 112.408 137.388 113.502L137.918 114.35ZM143.373 112.866C145.326 112.866 146.9 113.22 148.123 113.896L148.607 113.021C147.194 112.24 145.441 111.866 143.373 111.866V112.866ZM148.128 113.899C149.376 114.571 150.307 115.593 150.923 116.988L151.838 116.584C151.137 114.999 150.058 113.802 148.602 113.018L148.128 113.899ZM150.925 116.992C151.545 118.363 151.869 120.141 151.869 122.35H152.869C152.869 120.053 152.534 118.122 151.836 116.58L150.925 116.992ZM151.869 122.35V136.286H152.869V122.35H151.869ZM151.869 136.286C151.869 136.887 151.706 137.282 151.443 137.545L152.15 138.252C152.65 137.752 152.869 137.073 152.869 136.286H151.869ZM151.427 137.562C151.2 137.812 150.848 137.97 150.289 137.97V138.97C151.046 138.97 151.7 138.748 152.167 138.235L151.427 137.562ZM150.289 137.97C149.688 137.97 149.293 137.808 149.03 137.545L148.323 138.252C148.823 138.752 149.502 138.97 150.289 138.97V137.97ZM149.047 137.562C148.809 137.301 148.657 136.899 148.657 136.286H147.657C147.657 137.06 147.851 137.734 148.307 138.235L149.047 137.562ZM148.657 136.286V122.61H147.657V136.286H148.657ZM148.657 122.61C148.657 120.206 148.183 118.343 147.13 117.134L146.376 117.791C147.195 118.731 147.657 120.3 147.657 122.61H148.657ZM147.141 117.147C146.11 115.879 144.482 115.298 142.385 115.298V116.298C144.309 116.298 145.592 116.827 146.365 117.778L147.141 117.147ZM142.385 115.298C139.948 115.298 137.955 116.067 136.459 117.638L137.183 118.327C138.46 116.986 140.176 116.298 142.385 116.298V115.298ZM136.458 117.638C134.999 119.172 134.293 121.212 134.293 123.702H135.293C135.293 121.409 135.938 119.636 137.183 118.327L136.458 117.638ZM134.293 123.702V136.286H135.293V123.702H134.293ZM134.293 136.286C134.293 136.94 134.133 137.338 133.902 137.575C133.673 137.81 133.291 137.97 132.661 137.97V138.97C133.451 138.97 134.136 138.767 134.617 138.274C135.097 137.782 135.293 137.088 135.293 136.286H134.293ZM163.411 137.586L163.183 138.031L163.19 138.035L163.197 138.038L163.411 137.586ZM160.187 134.778L160.601 134.498L160.601 134.498L160.187 134.778ZM160.395 126.406L160.024 126.071L160.018 126.078L160.395 126.406ZM165.127 124.118L165.028 123.628L165.026 123.629L165.127 124.118ZM176.515 123.442H177.015V122.942H176.515V123.442ZM176.515 126.198V126.698H177.015V126.198H176.515ZM167.571 126.614L167.647 127.109L167.655 127.107L167.571 126.614ZM164.191 127.914L163.847 127.551L163.838 127.561L164.191 127.914ZM164.711 134.05L164.371 134.417L164.378 134.423L164.711 134.05ZM172.407 134.414L172.146 133.988L172.14 133.992L172.407 134.414ZM174.903 131.71L174.464 131.471L174.459 131.481L174.903 131.71ZM174.539 117.202L174.166 117.535L174.172 117.542L174.539 117.202ZM166.635 116.214L166.511 115.73L166.511 115.73L166.635 116.214ZM162.787 117.722L163.011 118.17L163.016 118.167L162.787 117.722ZM161.539 117.982L161.396 118.461L161.418 118.468L161.441 118.473L161.539 117.982ZM160.707 117.41L161.107 117.11L161.107 117.11L160.707 117.41ZM160.343 116.474L159.845 116.52L159.846 116.524L160.343 116.474ZM160.551 115.382L160.123 115.125L160.113 115.142L160.104 115.159L160.551 115.382ZM161.487 114.55L161.711 114.998L161.711 114.998L161.487 114.55ZM166.011 112.886L166.125 113.373L166.125 113.373L166.011 112.886ZM175.683 113.458L175.455 113.903L175.464 113.908L175.683 113.458ZM178.855 116.682L178.404 116.897L178.406 116.902L178.855 116.682ZM179.375 137.898L179.005 137.562L178.997 137.572L178.988 137.582L179.375 137.898ZM175.943 132.23V131.73H175.443V132.23H175.943ZM176.411 132.23L176.901 132.333L177.028 131.73H176.411V132.23ZM174.799 135.61L174.419 135.286L174.412 135.295L174.799 135.61ZM171.939 137.794L171.732 137.339L171.732 137.339L171.939 137.794ZM168.091 138.074C166.423 138.074 164.937 137.758 163.626 137.135L163.197 138.038C164.659 138.732 166.293 139.074 168.091 139.074V138.074ZM163.64 137.141C162.357 136.484 161.348 135.602 160.601 134.498L159.773 135.059C160.621 136.312 161.762 137.302 163.183 138.031L163.64 137.141ZM160.601 134.498C159.861 133.404 159.491 132.185 159.491 130.826H158.491C158.491 132.38 158.919 133.795 159.773 135.059L160.601 134.498ZM159.491 130.826C159.491 129.037 159.938 127.693 160.772 126.735L160.018 126.078C158.981 127.269 158.491 128.872 158.491 130.826H159.491ZM160.766 126.742C161.637 125.778 163.096 125.048 165.228 124.608L165.026 123.629C162.791 124.09 161.095 124.885 160.024 126.071L160.766 126.742ZM165.227 124.608C167.398 124.167 170.376 123.942 174.175 123.942V122.942C170.348 122.942 167.294 123.168 165.028 123.628L165.227 124.608ZM174.175 123.942H176.515V122.942H174.175V123.942ZM176.015 123.442V126.198H177.015V123.442H176.015ZM176.515 125.698H174.227V126.698H176.515V125.698ZM174.227 125.698C171.408 125.698 169.157 125.837 167.487 126.121L167.655 127.107C169.244 126.837 171.431 126.698 174.227 126.698V125.698ZM167.496 126.12C165.869 126.368 164.618 126.821 163.847 127.551L164.535 128.277C165.082 127.76 166.084 127.346 167.647 127.109L167.496 126.12ZM163.838 127.561C163.095 128.304 162.755 129.331 162.755 130.566H163.755C163.755 129.514 164.04 128.773 164.545 128.268L163.838 127.561ZM162.755 130.566C162.755 132.115 163.291 133.413 164.371 134.417L165.052 133.684C164.191 132.885 163.755 131.86 163.755 130.566H162.755ZM164.378 134.423C165.497 135.426 166.978 135.902 168.767 135.902V134.902C167.159 134.902 165.937 134.478 165.045 133.678L164.378 134.423ZM168.767 135.902C170.236 135.902 171.545 135.552 172.675 134.837L172.14 133.992C171.19 134.594 170.072 134.902 168.767 134.902V135.902ZM172.669 134.841C173.823 134.133 174.718 133.163 175.348 131.939L174.459 131.481C173.91 132.546 173.141 133.378 172.146 133.988L172.669 134.841ZM175.342 131.95C176.012 130.722 176.339 129.321 176.339 127.758H175.339C175.339 129.178 175.043 130.41 174.464 131.471L175.342 131.95ZM176.339 127.758V121.83H175.339V127.758H176.339ZM176.339 121.83C176.339 119.635 175.901 117.937 174.906 116.863L174.172 117.542C174.911 118.34 175.339 119.727 175.339 121.83H176.339ZM174.912 116.869C173.911 115.748 172.32 115.246 170.275 115.246V116.246C172.183 116.246 173.435 116.716 174.166 117.535L174.912 116.869ZM170.275 115.246C169.019 115.246 167.764 115.408 166.511 115.73L166.76 116.699C167.934 116.397 169.105 116.246 170.275 116.246V115.246ZM166.511 115.73C165.255 116.053 163.937 116.571 162.559 117.277L163.016 118.167C164.341 117.487 165.589 117 166.76 116.699L166.511 115.73ZM162.564 117.275C162.128 117.493 161.83 117.531 161.637 117.492L161.441 118.473C161.942 118.573 162.476 118.437 163.011 118.17L162.564 117.275ZM161.683 117.503C161.434 117.429 161.248 117.298 161.107 117.11L160.307 117.71C160.582 118.077 160.951 118.328 161.396 118.461L161.683 117.503ZM161.107 117.11C160.954 116.906 160.867 116.681 160.841 116.425L159.846 116.524C159.89 116.961 160.044 117.36 160.307 117.71L161.107 117.11ZM160.841 116.429C160.815 116.142 160.866 115.871 160.999 115.606L160.104 115.159C159.89 115.588 159.802 116.045 159.845 116.52L160.841 116.429ZM160.98 115.64C161.132 115.386 161.367 115.17 161.711 114.998L161.264 114.103C160.776 114.347 160.387 114.685 160.123 115.125L160.98 115.64ZM161.711 114.998C163.205 114.251 164.676 113.71 166.125 113.373L165.898 112.399C164.365 112.756 162.82 113.325 161.264 114.103L161.711 114.998ZM166.125 113.373C167.583 113.034 168.966 112.866 170.275 112.866V111.866C168.881 111.866 167.421 112.045 165.898 112.399L166.125 113.373ZM170.275 112.866C172.408 112.866 174.126 113.222 175.455 113.903L175.911 113.013C174.398 112.238 172.511 111.866 170.275 111.866V112.866ZM175.464 113.908C176.782 114.55 177.758 115.541 178.404 116.897L179.307 116.467C178.566 114.911 177.428 113.753 175.903 113.009L175.464 113.908ZM178.406 116.902C179.055 118.232 179.395 119.987 179.395 122.194H180.395C180.395 119.895 180.042 117.975 179.305 116.463L178.406 116.902ZM179.395 122.194V136.286H180.395V122.194H179.395ZM179.395 136.286C179.395 136.899 179.243 137.301 179.005 137.562L179.745 138.235C180.201 137.734 180.395 137.06 180.395 136.286H179.395ZM178.988 137.582C178.796 137.817 178.489 137.97 177.971 137.97V138.97C178.702 138.97 179.331 138.742 179.762 138.215L178.988 137.582ZM177.971 137.97C177.412 137.97 177.06 137.812 176.833 137.562L176.093 138.235C176.56 138.748 177.214 138.97 177.971 138.97V137.97ZM176.833 137.562C176.596 137.301 176.443 136.899 176.443 136.286H175.443C175.443 137.06 175.638 137.734 176.093 138.235L176.833 137.562ZM176.443 136.286V132.23H175.443V136.286H176.443ZM175.943 132.73H176.411V131.73H175.943V132.73ZM175.922 132.127C175.66 133.371 175.157 134.42 174.419 135.286L175.18 135.935C176.036 134.929 176.608 133.724 176.901 132.333L175.922 132.127ZM174.412 135.295C173.7 136.168 172.809 136.85 171.732 137.339L172.146 138.25C173.357 137.699 174.374 136.924 175.187 135.926L174.412 135.295ZM171.732 137.339C170.661 137.826 169.451 138.074 168.091 138.074V139.074C169.575 139.074 170.929 138.803 172.146 138.25L171.732 137.339ZM192.858 137.534L192.616 137.972L192.623 137.976L192.629 137.979L192.858 137.534ZM189.894 134.414L189.442 134.629L189.444 134.633L189.894 134.414ZM188.906 116.11H189.406V115.61H188.906V116.11ZM184.07 115.694L183.716 116.048L183.726 116.058L183.737 116.068L184.07 115.694ZM184.07 113.25L184.402 113.624L184.402 113.624L184.07 113.25ZM188.906 112.834V113.334H189.406V112.834H188.906ZM189.478 105.294L189.814 105.664L189.823 105.656L189.831 105.648L189.478 105.294ZM192.546 105.294L192.176 105.631L192.192 105.648L192.209 105.664L192.546 105.294ZM193.118 112.834H192.618V113.334H193.118V112.834ZM201.022 113.25L200.689 113.624L200.689 113.624L201.022 113.25ZM201.022 115.694L201.354 116.068L201.365 116.058L201.375 116.048L201.022 115.694ZM193.118 116.11V115.61H192.618V116.11H193.118ZM194.366 133.478L193.975 133.791L193.98 133.797L194.366 133.478ZM200.086 134.778L199.948 134.298L199.939 134.3L200.086 134.778ZM201.282 134.57V135.07H201.309L201.337 135.067L201.282 134.57ZM202.062 134.882L202.441 134.557L202.441 134.557L202.062 134.882ZM202.114 137.274L201.666 137.051L201.657 137.069L201.649 137.089L202.114 137.274ZM201.334 138.002L201.492 138.477L201.504 138.472L201.334 138.002ZM199.67 138.366L199.595 137.872L199.581 137.874L199.567 137.877L199.67 138.366ZM197.85 138.074C195.93 138.074 194.349 137.737 193.086 137.089L192.629 137.979C194.07 138.718 195.817 139.074 197.85 139.074V138.074ZM193.099 137.097C191.872 136.418 190.957 135.455 190.343 134.195L189.444 134.633C190.148 136.078 191.208 137.194 192.616 137.972L193.099 137.097ZM190.345 134.2C189.726 132.897 189.406 131.293 189.406 129.37H188.406C188.406 131.4 188.744 133.159 189.442 134.629L190.345 134.2ZM189.406 129.37V116.11H188.406V129.37H189.406ZM188.906 115.61H185.422V116.61H188.906V115.61ZM185.422 115.61C184.905 115.61 184.591 115.489 184.402 115.321L183.737 116.068C184.172 116.455 184.76 116.61 185.422 116.61V115.61ZM184.423 115.341C184.221 115.139 184.102 114.859 184.102 114.446H183.102C183.102 115.074 183.294 115.626 183.716 116.048L184.423 115.341ZM184.102 114.446C184.102 114.031 184.222 113.784 184.402 113.624L183.737 112.877C183.293 113.271 183.102 113.821 183.102 114.446H184.102ZM184.402 113.624C184.591 113.456 184.905 113.334 185.422 113.334V112.334C184.76 112.334 184.172 112.49 183.737 112.877L184.402 113.624ZM185.422 113.334H188.906V112.334H185.422V113.334ZM189.406 112.834V106.854H188.406V112.834H189.406ZM189.406 106.854C189.406 106.251 189.569 105.887 189.814 105.664L189.141 104.924C188.623 105.395 188.406 106.071 188.406 106.854H189.406ZM189.831 105.648C190.099 105.38 190.48 105.222 191.038 105.222V104.222C190.278 104.222 189.619 104.446 189.124 104.941L189.831 105.648ZM191.038 105.222C191.597 105.222 191.949 105.381 192.176 105.631L192.916 104.958C192.449 104.445 191.795 104.222 191.038 104.222V105.222ZM192.209 105.664C192.454 105.887 192.618 106.251 192.618 106.854H193.618C193.618 106.071 193.4 105.395 192.882 104.924L192.209 105.664ZM192.618 106.854V112.834H193.618V106.854H192.618ZM193.118 113.334H199.67V112.334H193.118V113.334ZM199.67 113.334C200.187 113.334 200.5 113.456 200.689 113.624L201.354 112.877C200.919 112.49 200.331 112.334 199.67 112.334V113.334ZM200.689 113.624C200.869 113.784 200.99 114.031 200.99 114.446H201.99C201.99 113.821 201.798 113.271 201.354 112.877L200.689 113.624ZM200.99 114.446C200.99 114.859 200.87 115.139 200.668 115.341L201.375 116.048C201.797 115.626 201.99 115.074 201.99 114.446H200.99ZM200.689 115.321C200.5 115.489 200.187 115.61 199.67 115.61V116.61C200.331 116.61 200.919 116.455 201.354 116.068L200.689 115.321ZM199.67 115.61H193.118V116.61H199.67V115.61ZM192.618 116.11V128.954H193.618V116.11H192.618ZM192.618 128.954C192.618 130.991 193.045 132.628 193.975 133.791L194.756 133.166C194.022 132.249 193.618 130.87 193.618 128.954H192.618ZM193.98 133.797C194.943 134.961 196.468 135.486 198.422 135.486V134.486C196.631 134.486 195.452 134.007 194.751 133.16L193.98 133.797ZM198.422 135.486C199.112 135.486 199.72 135.414 200.233 135.256L199.939 134.3C199.55 134.42 199.049 134.486 198.422 134.486V135.486ZM200.223 135.259C200.687 135.126 201.036 135.07 201.282 135.07V134.07C200.903 134.07 200.454 134.153 199.948 134.298L200.223 135.259ZM201.337 135.067C201.481 135.051 201.579 135.088 201.682 135.208L202.441 134.557C202.128 134.191 201.706 134.02 201.226 134.073L201.337 135.067ZM201.682 135.208C201.769 135.31 201.874 135.571 201.874 136.13H202.874C202.874 135.511 202.77 134.94 202.441 134.557L201.682 135.208ZM201.874 136.13C201.874 136.475 201.802 136.779 201.666 137.051L202.561 137.498C202.771 137.077 202.874 136.618 202.874 136.13H201.874ZM201.649 137.089C201.568 137.291 201.423 137.438 201.163 137.532L201.504 138.472C202.007 138.29 202.381 137.951 202.578 137.46L201.649 137.089ZM201.175 137.528C200.798 137.654 200.275 137.77 199.595 137.872L199.744 138.861C200.451 138.755 201.037 138.628 201.492 138.477L201.175 137.528ZM199.567 137.877C198.935 138.01 198.363 138.074 197.85 138.074V139.074C198.445 139.074 199.087 139 199.773 138.856L199.567 137.877Z" fill="#8A8A8A" mask="url(#path-2-outside-1_3_354)"/>
</svg>
