<svg width="25" height="25" viewBox="0 0 25 25" fill="none" xmlns="http://www.w3.org/2000/svg">
<path d="M12.801 14.5243V11.5243M12.801 11.5243V8.52429M12.801 11.5243H9.80103M12.801 11.5243H15.801M7.9246 19.2255L6.40063 20.4446C5.56846 21.1104 5.15218 21.4434 4.802 21.4438C4.49746 21.4441 4.20947 21.3056 4.01948 21.0676C3.80103 20.7939 3.80103 20.2612 3.80103 19.1955V7.72449C3.80103 6.60438 3.80103 6.04391 4.01901 5.61609C4.21076 5.23976 4.5165 4.93403 4.89282 4.74228C5.32065 4.52429 5.88112 4.52429 7.00122 4.52429H18.6012C19.7213 4.52429 20.2811 4.52429 20.7089 4.74228C21.0852 4.93403 21.3915 5.23976 21.5833 5.61609C21.801 6.04349 21.801 6.60329 21.801 7.7212V15.3279C21.801 16.4458 21.801 17.0048 21.5833 17.4322C21.3915 17.8085 21.0854 18.1148 20.709 18.3065C20.2816 18.5243 19.7225 18.5243 18.6046 18.5243H9.92358C9.50755 18.5243 9.29931 18.5243 9.10034 18.5651C8.92382 18.6014 8.75318 18.6611 8.59271 18.743C8.41251 18.8351 8.25066 18.9646 7.92825 19.2225L7.9246 19.2255Z" stroke="white" stroke-width="2" stroke-linecap="round" stroke-linejoin="round"/>
</svg>
